<svg width="30" height="31" viewBox="0 0 30 31" fill="none" xmlns="http://www.w3.org/2000/svg">
<circle cx="15" cy="15.5" r="15" fill="#F5F5F5"/>
<g filter="url(#filter0_d_572_1473)">
<path d="M22.0667 23.5C20.1556 23.5 18.2927 23.0739 16.4782 22.2218C14.6631 21.3702 13.0557 20.2443 11.656 18.844C10.2557 17.4443 9.12978 15.8369 8.27822 14.0218C7.42607 12.2073 7 10.3444 7 8.43333C7 8.16667 7.08889 7.94444 7.26667 7.76667C7.44444 7.58889 7.66667 7.5 7.93333 7.5H11.5333C11.7407 7.5 11.9259 7.56667 12.0889 7.7C12.2519 7.83333 12.3481 8.0037 12.3778 8.21111L12.9556 11.3222C12.9852 11.5296 12.9816 11.7184 12.9449 11.8884C12.9076 12.0591 12.8222 12.2111 12.6889 12.3444L10.5556 14.5222C11.1778 15.5889 11.9556 16.5889 12.8889 17.5222C13.8222 18.4556 14.8519 19.263 15.9778 19.9444L18.0667 17.8556C18.2 17.7222 18.3742 17.6221 18.5893 17.5551C18.8039 17.4887 19.0148 17.4704 19.2222 17.5L22.2889 18.1222C22.4963 18.1667 22.6667 18.2665 22.8 18.4218C22.9333 18.5776 23 18.7593 23 18.9667V22.5667C23 22.8333 22.9111 23.0556 22.7333 23.2333C22.5556 23.4111 22.3333 23.5 22.0667 23.5Z" fill="#BC5C4F"/>
</g>
<defs>
<filter id="filter0_d_572_1473" x="4" y="3.5" width="24" height="24" filterUnits="userSpaceOnUse" color-interpolation-filters="sRGB">
<feFlood flood-opacity="0" result="BackgroundImageFix"/>
<feColorMatrix in="SourceAlpha" type="matrix" values="0 0 0 0 0 0 0 0 0 0 0 0 0 0 0 0 0 0 127 0" result="hardAlpha"/>
<feOffset dx="1"/>
<feGaussianBlur stdDeviation="2"/>
<feComposite in2="hardAlpha" operator="out"/>
<feColorMatrix type="matrix" values="0 0 0 0 0 0 0 0 0 0.737255 0 0 0 0 0.4 0 0 0 0.25 0"/>
<feBlend mode="normal" in2="BackgroundImageFix" result="effect1_dropShadow_572_1473"/>
<feBlend mode="normal" in="SourceGraphic" in2="effect1_dropShadow_572_1473" result="shape"/>
</filter>
</defs>
</svg>
