<svg width="24" height="24" viewBox="0 0 24 24" fill="none" xmlns="http://www.w3.org/2000/svg">
<path d="M11.9023 5.98083C11.309 5.98083 10.729 6.15678 10.2356 6.48643C9.74229 6.81607 9.35777 7.28461 9.13071 7.83278C8.90364 8.38096 8.84423 8.98416 8.95999 9.56611C9.07574 10.148 9.36147 10.6826 9.78102 11.1022C10.2006 11.5217 10.7351 11.8074 11.3171 11.9232C11.899 12.0389 12.5022 11.9795 13.0504 11.7525C13.5986 11.5254 14.0671 11.1409 14.3968 10.6475C14.7264 10.1542 14.9023 9.57418 14.9023 8.98083C14.9014 8.18546 14.5851 7.42293 14.0227 6.86051C13.4603 6.2981 12.6977 5.98174 11.9023 5.98083ZM11.9023 10.4808C11.6057 10.4808 11.3157 10.3929 11.069 10.228C10.8223 10.0632 10.6301 9.82895 10.5165 9.55486C10.403 9.28077 10.3733 8.97917 10.4312 8.6882C10.489 8.39723 10.6319 8.12995 10.8417 7.92017C11.0515 7.7104 11.3187 7.56753 11.6097 7.50966C11.9007 7.45178 12.2023 7.48148 12.4764 7.59502C12.7505 7.70855 12.9847 7.90081 13.1495 8.14748C13.3144 8.39415 13.4023 8.68416 13.4023 8.98083C13.4019 9.37852 13.2437 9.75978 12.9625 10.041C12.6813 10.3222 12.3 10.4804 11.9023 10.4808Z" fill="#FB923C"/>
<path d="M17.6666 3.2117C16.2413 1.78672 14.3386 0.940225 12.3259 0.835587C10.3131 0.73095 8.33293 1.37559 6.76751 2.64509C5.20209 3.91459 4.16241 5.71895 3.84912 7.70994C3.53583 9.70092 3.97114 11.7374 5.07105 13.4263L10.7386 22.1269C10.8647 22.3205 11.0371 22.4796 11.2403 22.5897C11.4434 22.6998 11.6708 22.7574 11.9019 22.7574C12.1329 22.7574 12.3604 22.6998 12.5635 22.5897C12.7666 22.4796 12.9391 22.3205 13.0652 22.1269L18.7329 13.4263C19.7535 11.8596 20.2045 9.98968 20.0104 8.12999C19.8163 6.2703 18.9888 4.53385 17.6666 3.2117ZM17.4761 12.6075L11.9019 21.1645L6.32767 12.6075C4.62142 9.98819 4.98737 6.48287 7.19781 4.27234C7.81556 3.65458 8.54893 3.16454 9.35606 2.83021C10.1632 2.49588 11.0283 2.3238 11.9019 2.3238C12.7755 2.3238 13.6406 2.49588 14.4478 2.83021C15.2549 3.16454 15.9883 3.65458 16.606 4.27234C18.8164 6.48287 19.1823 9.98819 17.4761 12.6075Z" fill="#FB923C"/>
</svg>
