<svg width="70" height="70" viewBox="0 0 70 70" fill="none" xmlns="http://www.w3.org/2000/svg">
<rect width="70" height="70" rx="10" fill="#FDBA74" fill-opacity="0.1"/>
<path d="M49.7499 26.3925C49.6186 25.8634 48.9565 25.6841 48.571 26.0696L44.2139 30.4267L40.2366 29.764L39.5739 25.7866L43.9309 21.4296C44.3188 21.0417 44.1319 20.3808 43.5993 20.2484C40.8231 19.5605 37.7663 20.3017 35.5966 22.4708C33.2739 24.7935 32.6347 28.1602 33.6015 31.0958L21.0982 43.5991C19.6339 45.0633 19.6339 47.4376 21.0982 48.9018C22.5624 50.3661 24.9367 50.3661 26.4009 48.9018L38.8937 36.4091C41.8304 37.3882 45.1907 36.7419 47.5286 34.404C49.7007 32.2319 50.4407 29.1704 49.7499 26.3925ZM23.7501 47.6561C22.9738 47.6561 22.3439 47.0262 22.3439 46.2499C22.3439 45.4729 22.9738 44.8436 23.7501 44.8436C24.5265 44.8436 25.1564 45.4729 25.1564 46.2499C25.1564 47.0262 24.5265 47.6561 23.7501 47.6561Z" fill="#FB923C"/>
</svg>
