<svg width="71" height="70" viewBox="0 0 71 70" fill="none" xmlns="http://www.w3.org/2000/svg">
<rect x="0.5" width="70" height="70" rx="10" fill="#FEF6ED"/>
<g clip-path="url(#clip0_572_501)">
<path d="M35.0614 25.2072H35.039C34.9285 25.2072 34.8224 25.1635 34.7442 25.0858C34.666 25.0081 34.6221 24.9027 34.6221 24.7928C34.6221 24.6769 34.5758 24.5658 34.4934 24.4839C34.411 24.402 34.2993 24.356 34.1828 24.356C34.0663 24.356 33.9545 24.402 33.8721 24.4839C33.7897 24.5658 33.7434 24.6769 33.7434 24.7928C33.7434 25.1343 33.8799 25.4619 34.1229 25.7034C34.3659 25.945 34.6954 26.0807 35.039 26.0807H35.0614V26.5174C35.0614 26.6332 35.1077 26.7443 35.1901 26.8262C35.2725 26.9081 35.3843 26.9541 35.5008 26.9541C35.6173 26.9541 35.729 26.9081 35.8114 26.8262C35.8938 26.7443 35.9401 26.6332 35.9401 26.5174V26.0807C36.2897 26.0807 36.6249 25.9426 36.8721 25.6969C37.1193 25.4512 37.2581 25.118 37.2581 24.7705C37.2581 24.423 37.1193 24.0898 36.8721 23.844C36.6249 23.5983 36.2897 23.4603 35.9401 23.4603V22.5869H35.9498C36.187 22.5869 36.3794 22.7781 36.3794 23.014C36.3794 23.1298 36.4257 23.2409 36.5081 23.3228C36.5905 23.4047 36.7023 23.4507 36.8188 23.4507C36.9353 23.4507 37.0471 23.4047 37.1294 23.3228C37.2118 23.2409 37.2581 23.1298 37.2581 23.014C37.2581 22.669 37.1203 22.3382 36.8749 22.0943C36.6296 21.8504 36.2968 21.7134 35.9498 21.7134H35.9401V21.2767C35.9401 21.1609 35.8938 21.0498 35.8114 20.9679C35.729 20.886 35.6173 20.84 35.5008 20.84C35.3843 20.84 35.2725 20.886 35.1901 20.9679C35.1077 21.0498 35.0614 21.1609 35.0614 21.2767V21.7134C34.8884 21.7134 34.717 21.7473 34.5571 21.8131C34.3972 21.879 34.2519 21.9755 34.1295 22.0971C34.0071 22.2188 33.91 22.3632 33.8438 22.5222C33.7775 22.6812 33.7434 22.8515 33.7434 23.0236C33.7434 23.1956 33.7775 23.366 33.8438 23.525C33.91 23.6839 34.0071 23.8284 34.1295 23.95C34.2519 24.0717 34.3972 24.1682 34.5571 24.234C34.717 24.2999 34.8884 24.3338 35.0614 24.3338V25.2072ZM35.9401 25.2072V24.3338C36.0566 24.3338 36.1684 24.3798 36.2508 24.4617C36.3332 24.5436 36.3794 24.6547 36.3794 24.7705C36.3794 24.8863 36.3332 24.9974 36.2508 25.0793C36.1684 25.1612 36.0566 25.2072 35.9401 25.2072ZM35.0614 22.5869V23.4603C34.9449 23.4603 34.8332 23.4143 34.7508 23.3324C34.6684 23.2505 34.6221 23.1394 34.6221 23.0236C34.6221 22.9078 34.6684 22.7967 34.7508 22.7148C34.8332 22.6329 34.9449 22.5869 35.0614 22.5869ZM35.5008 28.2643C33.0743 28.2643 31.1074 26.3091 31.1074 23.897C31.1074 21.485 33.0743 19.5298 35.5008 19.5298C37.9272 19.5298 39.8941 21.485 39.8941 23.897C39.8941 26.3091 37.9272 28.2643 35.5008 28.2643Z" fill="#FB923C"/>
</g>
<path d="M35.3486 28.9814C29.9535 28.9814 25.2525 32.0512 23.8952 36.4126H22.8984C22.6342 36.4129 22.3732 36.4706 22.1338 36.5817C21.8944 36.6928 21.6823 36.8546 21.5125 37.0557C21.3426 37.2568 21.219 37.4925 21.1503 37.7461C21.0817 37.9997 21.0697 38.2652 21.1151 38.5239L21.5755 41.1541C21.6852 41.7811 22.014 42.3496 22.504 42.7592C22.994 43.1689 23.6137 43.3934 24.254 43.3934H24.7306C25.2743 44.3175 25.9774 45.1552 26.8056 45.883L25.4845 50.3453C25.4448 50.4797 25.4371 50.6214 25.4621 50.7592C25.4871 50.897 25.5441 51.0271 25.6285 51.1392C25.713 51.2513 25.8226 51.3423 25.9486 51.4049C26.0746 51.4676 26.2135 51.5001 26.3544 51.5001H29.9789C30.1659 51.5001 30.3483 51.4426 30.5011 51.3355C30.6539 51.2285 30.7697 51.077 30.8325 50.902L31.706 48.4681C32.8568 48.7798 34.0801 48.9491 35.3504 48.9491C36.6317 48.9491 37.8659 48.778 39.0257 48.4591L40.0098 50.9308C40.0766 51.0987 40.1927 51.2428 40.343 51.3443C40.4933 51.4458 40.6708 51.5001 40.8525 51.5001H44.477C44.6184 51.4999 44.7578 51.4669 44.884 51.4036C45.0103 51.3403 45.1199 51.2485 45.2041 51.1356C45.2883 51.0227 45.3447 50.8918 45.3689 50.7533C45.393 50.6148 45.3843 50.4726 45.3433 50.3381L43.9641 45.8236C45.9431 44.0563 47.1936 41.6495 47.1936 38.9653C47.1936 38.7041 47.1809 38.4429 47.1573 38.1889C47.6303 37.9907 48.078 37.7097 48.435 37.389C49.0058 37.9402 49.912 37.9402 49.912 36.6378C49.912 37.0395 49.0058 37.0395 49.0765 36.5909C49.1526 36.4463 49.2076 36.2916 49.2396 36.1316C49.2822 35.9229 49.271 35.7069 49.207 35.5037C49.143 35.3006 49.0283 35.1168 48.8735 34.9696C48.7103 34.8024 48.4956 34.6942 48.2635 34.6622C48.0313 34.6302 47.7951 34.6763 47.5923 34.793C47.4058 34.8955 47.2468 35.0409 47.1285 35.217C47.0103 35.3932 46.9362 35.595 46.9127 35.8055C46.8692 36.2432 47.0613 36.6702 47.4926 36.9837C47.3429 37.0865 47.1861 37.1786 47.0232 37.2593C46.0555 32.4601 41.0718 28.9814 35.3486 28.9814ZM48.348 35.964C48.3157 36.101 48.2552 36.2298 48.1704 36.3423C48.1433 36.3283 48.1167 36.3132 48.0906 36.2973C47.826 36.1352 47.8061 35.982 47.8152 35.8956C47.8241 35.8309 47.8479 35.7692 47.8846 35.7151C47.9214 35.6611 47.9702 35.6162 48.0272 35.5839C48.116 35.5353 48.1722 35.5461 48.232 35.6055C48.2824 35.6491 48.3198 35.7055 48.3403 35.7687C48.3607 35.8319 48.3634 35.8994 48.348 35.964ZM32.0394 34.793C31.9234 34.8322 31.8005 34.8475 31.6783 34.8381C31.556 34.8287 31.437 34.7947 31.3284 34.7383C31.2197 34.6818 31.1238 34.604 31.0462 34.5096C30.9687 34.4151 30.9113 34.3061 30.8774 34.189C30.8436 34.0718 30.8339 33.9491 30.8492 33.8282C30.8644 33.7073 30.9042 33.5907 30.966 33.4855C31.0279 33.3803 31.1106 33.2886 31.2091 33.2161C31.3077 33.1436 31.42 33.0917 31.5393 33.0636C32.778 32.7117 34.0603 32.5341 35.3486 32.5358C36.7314 32.5358 38.0616 32.7339 39.2994 33.1033C39.4134 33.1372 39.5195 33.1931 39.6118 33.2679C39.704 33.3426 39.7806 33.4347 39.837 33.5388C39.8935 33.6429 39.9287 33.7571 39.9408 33.8748C39.9529 33.9925 39.9415 34.1114 39.9074 34.2247C39.8732 34.338 39.817 34.4435 39.7418 34.5352C39.6666 34.6269 39.574 34.703 39.4692 34.7591C39.3645 34.8153 39.2496 34.8503 39.1312 34.8623C39.0128 34.8743 38.8932 34.863 38.7792 34.8291C37.6658 34.5005 36.5101 34.3348 35.3486 34.3373C34.1888 34.3373 33.0742 34.4994 32.0394 34.7948V34.793ZM29.9771 37.4899C29.9771 37.8482 29.8339 38.1919 29.579 38.4453C29.3241 38.6986 28.9784 38.841 28.6179 38.841C28.2574 38.841 27.9117 38.6986 27.6568 38.4453C27.4019 38.1919 27.2587 37.8482 27.2587 37.4899C27.2587 37.1315 27.4019 36.7879 27.6568 36.5345C27.9117 36.2811 28.2574 36.1388 28.6179 36.1388C28.9784 36.1388 29.3241 36.2811 29.579 36.5345C29.8339 36.7879 29.9771 37.1315 29.9771 37.4899Z" fill="#FB923C"/>
<defs>
<clipPath id="clip0_572_501">
<rect width="10.5441" height="10.4814" fill="white" transform="translate(30.2288 18.5)"/>
</clipPath>
</defs>
</svg>
