<svg width="24" height="24" viewBox="0 0 24 24" fill="none" xmlns="http://www.w3.org/2000/svg">
<path d="M3.32995 16H10.9999V13H5.59995C4.65995 13 3.84995 13.65 3.64995 14.57L3.32995 16ZM12.9999 16H20.6699L20.3499 14.57C20.2509 14.1261 20.004 13.7289 19.6497 13.4437C19.2955 13.1585 18.8548 13.002 18.3999 13H12.9999V16ZM21.1099 18H12.9999V22H19.5099C20.7899 22 21.7399 20.82 21.4599 19.57L21.1099 18ZM4.48995 22H10.9999V18H2.88995L2.53995 19.57C2.25995 20.82 3.20995 22 4.48995 22ZM11.9999 8C11.4499 8 10.9999 8.45 10.9999 9V10C10.9999 10.55 11.4499 11 11.9999 11C12.5499 11 12.9999 10.55 12.9999 10V9C12.9999 8.45 12.5499 8 11.9999 8ZM18.5899 8.62C18.6826 8.52749 18.7562 8.4176 18.8064 8.29662C18.8566 8.17565 18.8824 8.04597 18.8824 7.915C18.8824 7.78403 18.8566 7.65435 18.8064 7.53338C18.7562 7.4124 18.6826 7.30251 18.5899 7.21L17.8799 6.5C17.7874 6.40742 17.6775 6.33398 17.5565 6.28387C17.4355 6.23377 17.3059 6.20798 17.1749 6.20798C17.044 6.20798 16.9144 6.23377 16.7934 6.28387C16.6724 6.33398 16.5625 6.40742 16.4699 6.5C16.3774 6.59258 16.3039 6.70249 16.2538 6.82346C16.2037 6.94442 16.1779 7.07407 16.1779 7.205C16.1779 7.33593 16.2037 7.46558 16.2538 7.58654C16.3039 7.70751 16.3774 7.81742 16.4699 7.91L17.1799 8.62C17.5699 9.01 18.1999 9.01 18.5899 8.62ZM6.81995 8.62L7.52995 7.91C7.62253 7.81742 7.69597 7.70751 7.74607 7.58654C7.79618 7.46558 7.82197 7.33593 7.82197 7.205C7.82197 7.07407 7.79618 6.94442 7.74607 6.82346C7.69597 6.70249 7.62253 6.59258 7.52995 6.5C7.43736 6.40742 7.32745 6.33398 7.20649 6.28387C7.08552 6.23377 6.95588 6.20798 6.82494 6.20798C6.69401 6.20798 6.56437 6.23377 6.4434 6.28387C6.32244 6.33398 6.21253 6.40742 6.11995 6.5L5.40995 7.2C5.31724 7.29251 5.24369 7.4024 5.19351 7.52338C5.14333 7.64435 5.1175 7.77403 5.1175 7.905C5.1175 8.03597 5.14333 8.16565 5.19351 8.28662C5.24369 8.4076 5.31724 8.51749 5.40995 8.61C5.79994 9.01 6.42995 9.01 6.81995 8.62ZM4.99995 2H3.99995C3.44995 2 2.99995 2.45 2.99995 3C2.99995 3.55 3.44995 4 3.99995 4H4.99995C5.54995 4 5.99995 3.55 5.99995 3C5.99995 2.45 5.54995 2 4.99995 2ZM19.9999 2H18.9999C18.4499 2 17.9999 2.45 17.9999 3C17.9999 3.55 18.4499 4 18.9999 4H19.9999C20.5499 4 20.9999 3.55 20.9999 3C20.9999 2.45 20.5499 2 19.9999 2ZM11.9999 7C14.7599 7 16.9999 4.76 16.9999 2H6.99995C6.99995 4.76 9.23995 7 11.9999 7Z" fill="#415DA5"/>
</svg>
