<svg width="14" height="14" viewBox="0 0 14 14" fill="none" xmlns="http://www.w3.org/2000/svg">
<path d="M6.90472 1.09509C6.91474 1.07692 6.92456 1.06949 6.93058 1.06599C6.93762 1.06191 6.94582 1.05966 6.95455 1.05966C6.96327 1.05966 6.97147 1.06191 6.97851 1.06599C6.98453 1.06949 6.99435 1.07692 7.00437 1.09509L13.4611 12.8043C13.4795 12.8376 13.4782 12.8739 13.4611 12.9049C13.4528 12.92 13.4429 12.9292 13.4354 12.9339C13.4293 12.9377 13.4225 12.9403 13.4113 12.9403H0.497783C0.486568 12.9403 0.479761 12.9377 0.473673 12.9339C0.466201 12.9292 0.456302 12.92 0.447958 12.9049C0.430884 12.8739 0.429606 12.8376 0.447958 12.8043L6.90472 1.09509Z" stroke="#FB533C" stroke-width="0.869318"/>
<path d="M6.92604 5.26135C7.1814 5.26135 7.38674 5.47148 7.38085 5.72677L7.29539 9.43456C7.29077 9.63523 7.12677 9.79549 6.92604 9.79549C6.72532 9.79549 6.56132 9.63523 6.5567 9.43456L6.47123 5.72677C6.46535 5.47148 6.67069 5.26135 6.92604 5.26135ZM6.96405 11.6364C6.79937 11.6364 6.66002 11.5819 6.54601 11.4731C6.432 11.3643 6.375 11.2313 6.375 11.0741C6.375 10.9169 6.432 10.7839 6.54601 10.6751C6.66002 10.5663 6.79937 10.5119 6.96405 10.5119C7.12239 10.5119 7.2554 10.5663 7.36308 10.6751C7.47709 10.7839 7.53409 10.9169 7.53409 11.0741C7.53409 11.2313 7.47709 11.3643 7.36308 11.4731C7.2554 11.5819 7.12239 11.6364 6.96405 11.6364Z" fill="#FB533C"/>
</svg>