<svg width="30" height="33" viewBox="0 0 30 33" fill="none" xmlns="http://www.w3.org/2000/svg">
<path d="M14.4736 6.7072H14.4511C14.3406 6.7072 14.2345 6.66354 14.1563 6.58581C14.0781 6.50809 14.0342 6.40267 14.0342 6.29275C14.0342 6.17692 13.9879 6.06584 13.9055 5.98394C13.8231 5.90204 13.7114 5.85603 13.5949 5.85603C13.4784 5.85603 13.3666 5.90204 13.2842 5.98394C13.2018 6.06584 13.1555 6.17692 13.1555 6.29275C13.1555 6.63432 13.292 6.96191 13.535 7.20343C13.778 7.44496 14.1075 7.58065 14.4511 7.58065H14.4736V8.01738C14.4736 8.1332 14.5198 8.24429 14.6022 8.32619C14.6846 8.40809 14.7964 8.4541 14.9129 8.4541C15.0294 8.4541 15.1412 8.40809 15.2235 8.32619C15.3059 8.24429 15.3522 8.1332 15.3522 8.01738V7.58065C15.7018 7.58065 16.037 7.44262 16.2842 7.19691C16.5314 6.95121 16.6702 6.61796 16.6702 6.27048C16.6702 5.923 16.5314 5.58975 16.2842 5.34405C16.037 5.09834 15.7018 4.9603 15.3522 4.9603V4.08686H15.3619C15.5991 4.08686 15.7916 4.27814 15.7916 4.51397C15.7916 4.6298 15.8378 4.74088 15.9202 4.82278C16.0026 4.90469 16.1144 4.9507 16.2309 4.9507C16.3474 4.9507 16.4592 4.90469 16.5416 4.82278C16.6239 4.74088 16.6702 4.6298 16.6702 4.51397C16.6702 4.16904 16.5324 3.83824 16.287 3.59433C16.0417 3.35043 15.7089 3.21341 15.3619 3.21341H15.3522V2.77668C15.3522 2.66086 15.3059 2.54977 15.2235 2.46787C15.1412 2.38597 15.0294 2.33996 14.9129 2.33996C14.7964 2.33996 14.6846 2.38597 14.6022 2.46787C14.5198 2.54977 14.4736 2.66086 14.4736 2.77668V3.21341C14.3005 3.21341 14.1291 3.2473 13.9692 3.31314C13.8093 3.37898 13.664 3.47549 13.5416 3.59715C13.4192 3.71881 13.3221 3.86324 13.2559 4.0222C13.1896 4.18116 13.1555 4.35153 13.1555 4.52358C13.1555 4.69564 13.1896 4.866 13.2559 5.02496C13.3221 5.18392 13.4192 5.32835 13.5416 5.45001C13.664 5.57167 13.8093 5.66818 13.9692 5.73402C14.1291 5.79987 14.3005 5.83375 14.4736 5.83375V6.7072ZM15.3522 6.7072V5.83375C15.4687 5.83375 15.5805 5.87977 15.6629 5.96167C15.7453 6.04357 15.7916 6.15465 15.7916 6.27048C15.7916 6.3863 15.7453 6.49739 15.6629 6.57929C15.5805 6.66119 15.4687 6.7072 15.3522 6.7072ZM14.4736 4.08686V4.9603C14.357 4.9603 14.2453 4.91429 14.1629 4.83239C14.0805 4.75049 14.0342 4.63941 14.0342 4.52358C14.0342 4.40775 14.0805 4.29667 14.1629 4.21477C14.2453 4.13287 14.357 4.08686 14.4736 4.08686ZM14.9129 9.76427C12.4864 9.76427 10.5195 7.80906 10.5195 5.39703C10.5195 2.985 12.4864 1.02979 14.9129 1.02979C17.3393 1.02979 19.3062 2.985 19.3062 5.39703C19.3062 7.80906 17.3393 9.76427 14.9129 9.76427Z" fill="#FB923C"/>
<path d="M14.7605 10.4814C9.3654 10.4814 4.6644 13.5512 3.30702 17.9126H2.31027C2.04606 17.9129 1.78511 17.9706 1.5457 18.0817C1.30629 18.1928 1.09421 18.3546 0.924324 18.5557C0.754435 18.7568 0.630845 18.9925 0.562212 19.2461C0.493579 19.4997 0.481564 19.7652 0.527008 20.0239L0.987323 22.6541C1.09702 23.2811 1.42584 23.8496 1.91585 24.2592C2.40585 24.6689 3.02559 24.8934 3.66584 24.8934H4.14247C4.68615 25.8175 5.3893 26.6552 6.21751 27.383L4.89637 31.8453C4.85664 31.9797 4.84897 32.1214 4.87398 32.2592C4.89898 32.397 4.95597 32.5271 5.04041 32.6392C5.12485 32.7513 5.23442 32.8423 5.36042 32.9049C5.48642 32.9676 5.62538 33.0001 5.76625 33.0001H9.39077C9.57774 33.0001 9.76014 32.9426 9.91295 32.8355C10.0658 32.7285 10.1815 32.577 10.2443 32.402L11.1179 29.9681C12.2686 30.2798 13.4919 30.4491 14.7623 30.4491C16.0436 30.4491 17.2777 30.278 18.4376 29.9591L19.4216 32.4308C19.4885 32.5987 19.6046 32.7428 19.7549 32.8443C19.9051 32.9458 20.0826 33.0001 20.2643 33.0001H23.8889C24.0302 32.9999 24.1696 32.9669 24.2959 32.9036C24.4221 32.8403 24.5317 32.7485 24.6159 32.6356C24.7001 32.5227 24.7566 32.3918 24.7807 32.2533C24.8049 32.1148 24.7961 31.9726 24.7551 31.8381L23.376 27.3236C25.355 25.5563 26.6054 23.1495 26.6054 20.4653C26.6054 20.2041 26.5927 19.9429 26.5692 19.6889C27.0422 19.4907 27.4898 19.2097 27.8468 18.889C28.4177 19.4402 29.3238 19.4402 29.3238 18.1378C29.3238 18.5395 28.4177 18.5395 28.4884 18.0909C28.5645 17.9463 28.6194 17.7916 28.6515 17.6316C28.6941 17.4229 28.6829 17.2069 28.6189 17.0037C28.5549 16.8006 28.4401 16.6168 28.2854 16.4696C28.1222 16.3024 27.9075 16.1942 27.6753 16.1622C27.4432 16.1302 27.2069 16.1763 27.0041 16.293C26.8177 16.3955 26.6586 16.5409 26.5404 16.717C26.4221 16.8932 26.3481 17.095 26.3245 17.3055C26.281 17.7432 26.4731 18.1702 26.9045 18.4837C26.7548 18.5865 26.5979 18.6786 26.4351 18.7593C25.4673 13.9601 20.4836 10.4814 14.7605 10.4814ZM27.7598 17.464C27.7276 17.601 27.6671 17.7298 27.5822 17.8423C27.5551 17.8283 27.5285 17.8132 27.5025 17.7973C27.2379 17.6352 27.218 17.482 27.227 17.3956C27.236 17.3309 27.2597 17.2692 27.2965 17.2151C27.3333 17.1611 27.382 17.1162 27.4391 17.0839C27.5279 17.0353 27.5841 17.0461 27.6439 17.1055C27.6942 17.1491 27.7317 17.2055 27.7521 17.2687C27.7726 17.3319 27.7752 17.3994 27.7598 17.464ZM11.4513 16.293C11.3352 16.3322 11.2123 16.3475 11.0901 16.3381C10.9679 16.3287 10.8489 16.2947 10.7402 16.2383C10.6316 16.1818 10.5356 16.104 10.4581 16.0096C10.3806 15.9151 10.3232 15.8061 10.2893 15.689C10.2554 15.5718 10.2458 15.4491 10.261 15.3282C10.2763 15.2073 10.316 15.0907 10.3779 14.9855C10.4398 14.8803 10.5225 14.7886 10.621 14.7161C10.7195 14.6436 10.8318 14.5917 10.9511 14.5636C12.1899 14.2117 13.4721 14.0341 14.7605 14.0358C16.1433 14.0358 17.4735 14.2339 18.7112 14.6033C18.8252 14.6372 18.9314 14.6931 19.0236 14.7679C19.1159 14.8426 19.1924 14.9347 19.2489 15.0388C19.3053 15.1429 19.3406 15.2571 19.3527 15.3748C19.3648 15.4925 19.3534 15.6114 19.3192 15.7247C19.2851 15.838 19.2288 15.9435 19.1536 16.0352C19.0785 16.1269 18.9859 16.203 18.8811 16.2591C18.7763 16.3153 18.6615 16.3503 18.5431 16.3623C18.4247 16.3743 18.3051 16.363 18.1911 16.3291C17.0777 16.0005 15.922 15.8348 14.7605 15.8373C13.6007 15.8373 12.4861 15.9994 11.4513 16.2948V16.293ZM9.38896 18.9899C9.38896 19.3482 9.24576 19.6919 8.99086 19.9453C8.73596 20.1986 8.39025 20.341 8.02977 20.341C7.66928 20.341 7.32357 20.1986 7.06867 19.9453C6.81377 19.6919 6.67057 19.3482 6.67057 18.9899C6.67057 18.6315 6.81377 18.2879 7.06867 18.0345C7.32357 17.7811 7.66928 17.6388 8.02977 17.6388C8.39025 17.6388 8.73596 17.7811 8.99086 18.0345C9.24576 18.2879 9.38896 18.6315 9.38896 18.9899Z" fill="#FB923C"/>
</svg>
