<svg width="30" height="30" viewBox="0 0 30 30" fill="none" xmlns="http://www.w3.org/2000/svg">
<g filter="url(#filter0_i_621_312)">
<path d="M28.1414 15L29.7994 12.1345C29.9987 11.7898 30.0529 11.38 29.9501 10.9953C29.8473 10.6106 29.5959 10.2825 29.2512 10.0831L26.3828 8.42508V5.12111C26.3828 4.72281 26.2246 4.34082 25.9429 4.05918C25.6613 3.77753 25.2793 3.61931 24.881 3.61931H21.5785L19.922 0.752363C19.722 0.408324 19.3945 0.156905 19.0104 0.0525218C18.8199 0.000883648 18.6211 -0.0124315 18.4254 0.0133482C18.2298 0.0391278 18.0412 0.10349 17.8706 0.202702L15.0021 1.86069L12.1337 0.2012C11.7887 0.00205774 11.3788 -0.051909 10.9941 0.0511716C10.6094 0.154252 10.2814 0.405937 10.0822 0.750861L8.42421 3.61931H5.12174C4.72344 3.61931 4.34145 3.77753 4.0598 4.05918C3.77816 4.34082 3.61994 4.72281 3.61994 5.12111V8.42358L0.751488 10.0816C0.58033 10.18 0.430312 10.3113 0.310054 10.4679C0.189795 10.6245 0.101668 10.8034 0.0507308 10.9941C-0.000206107 11.1849 -0.0129473 11.3839 0.0132407 11.5796C0.0394287 11.7753 0.104028 11.9639 0.203329 12.1345L1.86132 15L0.203329 17.8654C0.00507442 18.2105 -0.0487157 18.62 0.053687 19.0045C0.15609 19.3891 0.40638 19.7176 0.749987 19.9184L3.61843 21.5764V24.8788C3.61843 25.2771 3.77666 25.6591 4.0583 25.9408C4.33995 26.2224 4.72193 26.3806 5.12024 26.3806H8.42421L10.0822 29.2491C10.2152 29.4764 10.405 29.6651 10.633 29.7968C10.8611 29.9285 11.1195 29.9985 11.3828 30C11.6441 30 11.9039 29.9309 12.1352 29.7973L15.0006 28.1393L17.8691 29.7973C18.2139 29.9961 18.6235 30.0501 19.0081 29.9473C19.3927 29.8446 19.7208 29.5935 19.9205 29.2491L21.577 26.3806H24.8795C25.2778 26.3806 25.6598 26.2224 25.9414 25.9408C26.2231 25.6591 26.3813 25.2771 26.3813 24.8788V21.5764L29.2497 19.9184C29.4206 19.8196 29.5703 19.6882 29.6904 19.5316C29.8104 19.3749 29.8984 19.1962 29.9493 19.0055C30.0002 18.8148 30.013 18.616 29.9871 18.4204C29.9611 18.2248 29.8968 18.0362 29.7979 17.8654L28.1414 15Z" fill="url(#paint0_linear_621_312)"/>
</g>
<mask id="mask0_621_312" style="mask-type:alpha" maskUnits="userSpaceOnUse" x="0" y="0" width="30" height="30">
<path d="M28.1414 15L29.7994 12.1345C29.9987 11.7898 30.0529 11.38 29.9501 10.9953C29.8473 10.6106 29.5959 10.2825 29.2512 10.0831L26.3828 8.42508V5.12111C26.3828 4.72281 26.2246 4.34082 25.9429 4.05918C25.6613 3.77753 25.2793 3.61931 24.881 3.61931H21.5785L19.922 0.752363C19.722 0.408324 19.3945 0.156905 19.0104 0.0525218C18.8199 0.000883648 18.6211 -0.0124315 18.4254 0.0133482C18.2298 0.0391278 18.0412 0.10349 17.8706 0.202702L15.0021 1.86069L12.1337 0.2012C11.7887 0.00205774 11.3788 -0.051909 10.9941 0.0511716C10.6094 0.154252 10.2814 0.405937 10.0822 0.750861L8.42421 3.61931H5.12174C4.72344 3.61931 4.34145 3.77753 4.0598 4.05918C3.77816 4.34082 3.61994 4.72281 3.61994 5.12111V8.42358L0.751488 10.0816C0.58033 10.18 0.430312 10.3113 0.310054 10.4679C0.189795 10.6245 0.101668 10.8034 0.0507308 10.9941C-0.000206107 11.1849 -0.0129473 11.3839 0.0132407 11.5796C0.0394287 11.7753 0.104028 11.9639 0.203329 12.1345L1.86132 15L0.203329 17.8654C0.00507442 18.2105 -0.0487157 18.62 0.053687 19.0045C0.15609 19.3891 0.40638 19.7176 0.749987 19.9184L3.61843 21.5764V24.8788C3.61843 25.2771 3.77666 25.6591 4.0583 25.9408C4.33995 26.2224 4.72193 26.3806 5.12024 26.3806H8.42421L10.0822 29.2491C10.2152 29.4764 10.405 29.6651 10.633 29.7968C10.8611 29.9285 11.1195 29.9985 11.3828 30C11.6441 30 11.9039 29.9309 12.1352 29.7973L15.0006 28.1393L17.8691 29.7973C18.2139 29.9961 18.6235 30.0501 19.0081 29.9473C19.3927 29.8446 19.7208 29.5935 19.9205 29.2491L21.577 26.3806H24.8795C25.2778 26.3806 25.6598 26.2224 25.9414 25.9408C26.2231 25.6591 26.3813 25.2771 26.3813 24.8788V21.5764L29.2497 19.9184C29.4206 19.8196 29.5703 19.6882 29.6904 19.5316C29.8104 19.3749 29.8984 19.1962 29.9493 19.0055C30.0002 18.8148 30.013 18.616 29.9871 18.4204C29.9611 18.2248 29.8968 18.0362 29.7979 17.8654L28.1414 15Z" fill="url(#paint1_linear_621_312)"/>
</mask>
<g mask="url(#mask0_621_312)">
<path d="M13.6706 17.0678C13.1171 15.2352 14.1318 13.2941 15.937 12.7322L21.1776 11.101L23.3591 18.3234L14.85 20.9721L13.6706 17.0678Z" fill="white"/>
<path d="M15.214 22.1759L23.7232 19.5272L25.9047 26.7496L20.6642 28.3809C18.859 28.9428 16.9468 27.9127 16.3933 26.0802L15.214 22.1759Z" fill="white"/>
<path d="M22.1596 10.7954L27.4002 9.1642C29.2054 8.6023 31.1175 9.63235 31.671 11.4649L32.8503 15.3692L24.3412 18.0179L22.1596 10.7954Z" fill="white"/>
<path d="M22.1596 10.7954L27.4002 9.1642C29.2054 8.6023 31.1175 9.63235 31.671 11.4649L32.8503 15.3692L24.3412 18.0179L22.1596 10.7954Z" fill="white"/>
<path d="M24.7052 19.2216L33.2144 16.573L34.3937 20.4773C34.9472 22.3098 33.9325 24.2509 32.1273 24.8128L26.8868 26.444L24.7052 19.2216Z" fill="white"/>
<path d="M24.7052 19.2216L33.2144 16.573L34.3937 20.4773C34.9472 22.3098 33.9325 24.2509 32.1273 24.8128L26.8868 26.444L24.7052 19.2216Z" fill="white"/>
</g>
<defs>
<filter id="filter0_i_621_312" x="0" y="0" width="31" height="32" filterUnits="userSpaceOnUse" color-interpolation-filters="sRGB">
<feFlood flood-opacity="0" result="BackgroundImageFix"/>
<feBlend mode="normal" in="SourceGraphic" in2="BackgroundImageFix" result="shape"/>
<feColorMatrix in="SourceAlpha" type="matrix" values="0 0 0 0 0 0 0 0 0 0 0 0 0 0 0 0 0 0 127 0" result="hardAlpha"/>
<feOffset dx="1" dy="2"/>
<feGaussianBlur stdDeviation="1.5"/>
<feComposite in2="hardAlpha" operator="arithmetic" k2="-1" k3="1"/>
<feColorMatrix type="matrix" values="0 0 0 0 1 0 0 0 0 0.843137 0 0 0 0 0.52549 0 0 0 0.6 0"/>
<feBlend mode="normal" in2="shape" result="effect1_innerShadow_621_312"/>
</filter>
<linearGradient id="paint0_linear_621_312" x1="9.80801" y1="5.76923" x2="20.1924" y2="25.3849" gradientUnits="userSpaceOnUse">
<stop stop-color="#F8B93A"/>
<stop offset="1" stop-color="#D87114"/>
</linearGradient>
<linearGradient id="paint1_linear_621_312" x1="9.80801" y1="5.76923" x2="20.1924" y2="25.3849" gradientUnits="userSpaceOnUse">
<stop stop-color="#F8B93A"/>
<stop offset="1" stop-color="#D87114"/>
</linearGradient>
</defs>
</svg>
