<svg width="27" height="31" viewBox="0 0 27 31" fill="none" xmlns="http://www.w3.org/2000/svg">
<path fill-rule="evenodd" clip-rule="evenodd" d="M6.5 0.5H20.5V2.5H26.5V27.5C26.5 28.2956 26.1839 29.0587 25.6213 29.6213C25.0587 30.1839 24.2956 30.5 23.5 30.5H3.5C2.70435 30.5 1.94129 30.1839 1.37868 29.6213C0.816071 29.0587 0.5 28.2956 0.5 27.5V2.5H6.5V0.5ZM8.5 2.5H18.5V5.5C18.5 5.76522 18.3946 6.01957 18.2071 6.20711C18.0196 6.39464 17.7652 6.5 17.5 6.5H9.5C9.23478 6.5 8.98043 6.39464 8.79289 6.20711C8.60536 6.01957 8.5 5.76522 8.5 5.5V2.5ZM12.548 22.964L20.252 14.158L18.748 12.842L12.452 20.038L9.208 16.792L7.792 18.208L12.548 22.964Z" fill="#FB923C"/>
</svg>
