<svg width="127" height="32" viewBox="0 0 127 32" fill="none" xmlns="http://www.w3.org/2000/svg">
<g clip-path="url(#clip0_572_306)">
<path d="M33.5746 11.5701H46.3179V13.9343H41.3072V27.2246H38.5519V13.9343H33.5635V11.5701H33.5746H33.5746ZM45.7735 15.8897H48.1288V18.0771H48.1733C48.251 17.7678 48.3955 17.4695 48.6066 17.1823C48.8176 16.895 49.0732 16.6188 49.3732 16.3868C49.6731 16.1438 50.0064 15.956 50.3731 15.8013C50.7397 15.6577 51.1174 15.5804 51.4952 15.5804C51.784 15.5804 51.9951 15.5914 52.1062 15.6025C52.2173 15.6135 52.3284 15.6356 52.4506 15.6466V18.055C52.2729 18.0219 52.0951 17.9998 51.9063 17.9777C51.7174 17.9556 51.5396 17.9446 51.3619 17.9446C50.9397 17.9446 50.5397 18.0329 50.162 18.1987C49.7842 18.3644 49.462 18.6185 49.1843 18.9388C48.9065 19.2703 48.6843 19.668 48.5177 20.1541C48.351 20.6402 48.2733 21.1926 48.2733 21.8223V27.2135H45.7624V15.8897H45.7735V15.8897ZM63.994 27.2246H61.5276V25.6448H61.4832C61.1721 26.2192 60.7166 26.6722 60.1055 27.0147C59.4945 27.3572 58.8723 27.5339 58.239 27.5339C56.7391 27.5339 55.6504 27.1693 54.9838 26.4292C54.3171 25.689 53.9838 24.5731 53.9838 23.0817V15.8897H56.4947V22.8387C56.4947 23.833 56.6836 24.54 57.0725 24.9488C57.4502 25.3575 57.9946 25.5674 58.6834 25.5674C59.2167 25.5674 59.65 25.4901 60.0055 25.3244C60.361 25.1587 60.6499 24.9488 60.861 24.6726C61.0832 24.4074 61.2387 24.076 61.3387 23.7004C61.4387 23.3248 61.4832 22.916 61.4832 22.4741V15.9007H63.994V27.2246V27.2246ZM68.2714 23.5899C68.3492 24.3191 68.627 24.8272 69.1047 25.1255C69.5935 25.4128 70.1713 25.5674 70.849 25.5674C71.0823 25.5674 71.3489 25.5453 71.6489 25.5122C71.9489 25.4791 72.2377 25.4017 72.4933 25.3023C72.7599 25.2029 72.971 25.0482 73.1488 24.8493C73.3154 24.6505 73.3932 24.3964 73.3821 24.076C73.371 23.7556 73.2488 23.4905 73.0266 23.2916C72.8044 23.0817 72.5266 22.927 72.1822 22.7945C71.8378 22.673 71.4489 22.5625 71.0045 22.4741C70.5601 22.3857 70.1157 22.2863 69.6602 22.1869C69.1936 22.0874 68.7381 21.9549 68.3048 21.8112C67.8715 21.6676 67.4826 21.4688 67.1382 21.2147C66.7938 20.9716 66.516 20.6512 66.3161 20.2646C66.105 19.8779 66.005 19.4028 66.005 18.8284C66.005 18.2097 66.1605 17.7015 66.4605 17.2817C66.7605 16.8619 67.1493 16.5305 67.6048 16.2764C68.0715 16.0223 68.5825 15.8455 69.1491 15.735C69.7158 15.6356 70.2601 15.5804 70.7712 15.5804C71.36 15.5804 71.9267 15.6467 72.4599 15.7682C72.9932 15.8897 73.4821 16.0886 73.9154 16.3758C74.3487 16.652 74.7042 17.0166 74.993 17.4585C75.2819 17.9004 75.4597 18.4417 75.5374 19.0714H72.9155C72.7932 18.4748 72.5266 18.0661 72.0933 17.8672C71.66 17.6573 71.1601 17.5579 70.6046 17.5579C70.4268 17.5579 70.2157 17.5689 69.9713 17.6021C69.7269 17.6352 69.5047 17.6905 69.2825 17.7678C69.0714 17.8451 68.8936 17.9667 68.7381 18.1213C68.5936 18.276 68.5159 18.4748 68.5159 18.7289C68.5159 19.0383 68.627 19.2813 68.838 19.4691C69.0491 19.6569 69.3269 19.8116 69.6713 19.9442C70.0157 20.0657 70.4046 20.1762 70.849 20.2646C71.2934 20.3529 71.7489 20.4524 72.2155 20.5518C72.671 20.6512 73.1154 20.7838 73.5598 20.9274C74.0042 21.071 74.3931 21.2699 74.7375 21.524C75.0819 21.7781 75.3597 22.0874 75.5708 22.463C75.7819 22.8387 75.893 23.3137 75.893 23.8661C75.893 24.54 75.7374 25.1034 75.4263 25.5785C75.1153 26.0425 74.7153 26.4292 74.2265 26.7164C73.7376 27.0036 73.1821 27.2246 72.5822 27.3572C71.9822 27.4897 71.3823 27.556 70.7934 27.556C70.0713 27.556 69.4047 27.4787 68.7936 27.313C68.1826 27.1472 67.6493 26.9042 67.2049 26.5838C66.7605 26.2524 66.4049 25.8436 66.1494 25.3575C65.8939 24.8714 65.7606 24.2859 65.7383 23.612H68.2714V23.5899ZM76.5596 15.8897H78.4594V12.487H80.9703V15.8897H83.2367V17.7568H80.9703V23.8109C80.9703 24.076 80.9814 24.297 81.0036 24.4958C81.0258 24.6836 81.0814 24.8493 81.1592 24.9819C81.2369 25.1145 81.3591 25.2139 81.5258 25.2802C81.6924 25.3465 81.9035 25.3796 82.1924 25.3796C82.3702 25.3796 82.5479 25.3796 82.7257 25.3686C82.9034 25.3575 83.0812 25.3354 83.259 25.2912V27.2246C82.9812 27.2577 82.7035 27.2798 82.4479 27.313C82.1813 27.3461 81.9146 27.3572 81.6369 27.3572C80.9703 27.3572 80.437 27.2909 80.037 27.1693C79.6371 27.0478 79.3149 26.86 79.0927 26.617C78.8594 26.3739 78.7149 26.0756 78.626 25.7111C78.5483 25.3465 78.4927 24.9267 78.4816 24.4627V17.7788H76.5818V15.8897H76.5596ZM85.0144 15.8897H87.3919V17.4253H87.4364C87.7919 16.7625 88.2807 16.2985 88.914 16.0112C89.5473 15.724 90.225 15.5804 90.9694 15.5804C91.8693 15.5804 92.647 15.735 93.3136 16.0554C93.9802 16.3647 94.5357 16.7956 94.9801 17.348C95.4245 17.9004 95.7467 18.5411 95.9689 19.2703C96.1911 19.9994 96.3022 20.7838 96.3022 21.6124C96.3022 22.3747 96.2022 23.1149 96.0022 23.8219C95.8023 24.54 95.5023 25.1697 95.1023 25.7221C94.7024 26.2745 94.1913 26.7053 93.5691 27.0368C92.947 27.3682 92.2248 27.5339 91.3805 27.5339C91.0138 27.5339 90.6472 27.5008 90.2805 27.4345C89.9139 27.3682 89.5584 27.2577 89.2251 27.1141C88.8918 26.9705 88.5696 26.7827 88.2918 26.5507C88.003 26.3187 87.7697 26.0535 87.5697 25.7552H87.5252V31.4116H85.0144V15.8897V15.8897ZM93.7913 21.5682C93.7913 21.06 93.7247 20.5629 93.5914 20.0768C93.458 19.5907 93.2581 19.1708 92.9914 18.7952C92.7248 18.4196 92.3915 18.1213 92.0026 17.9004C91.6026 17.6794 91.1471 17.5579 90.6361 17.5579C89.5806 17.5579 88.7807 17.9225 88.2474 18.6516C87.7141 19.3808 87.4475 20.3529 87.4475 21.5682C87.4475 22.1427 87.5141 22.6729 87.6586 23.159C87.803 23.6451 88.003 24.065 88.2918 24.4185C88.5696 24.772 88.9029 25.0482 89.2918 25.2471C89.6806 25.457 90.1361 25.5564 90.6472 25.5564C91.2249 25.5564 91.7026 25.4349 92.1026 25.2029C92.5026 24.9709 92.8248 24.6615 93.0803 24.297C93.3358 23.9213 93.5247 23.5015 93.6358 23.0265C93.7358 22.5514 93.7913 22.0653 93.7913 21.5682ZM98.2243 11.5701H100.735V13.9343H98.2243V11.5701V11.5701ZM98.2243 15.8897H100.735V27.2246H98.2243V15.8897ZM102.979 11.5701H105.49V27.2246H102.979V11.5701V11.5701ZM113.19 27.5339C112.279 27.5339 111.468 27.3792 110.756 27.081C110.045 26.7827 109.445 26.3629 108.946 25.8436C108.457 25.3133 108.079 24.6836 107.823 23.9545C107.568 23.2253 107.435 22.4189 107.435 21.5461C107.435 20.6844 107.568 19.8889 107.823 19.1598C108.079 18.4307 108.457 17.8009 108.946 17.2707C109.434 16.7404 110.045 16.3316 110.756 16.0333C111.468 15.735 112.279 15.5804 113.19 15.5804C114.101 15.5804 114.912 15.735 115.623 16.0333C116.334 16.3316 116.934 16.7514 117.434 17.2707C117.922 17.8009 118.3 18.4307 118.556 19.1598C118.811 19.8889 118.945 20.6844 118.945 21.5461C118.945 22.4189 118.811 23.2253 118.556 23.9545C118.3 24.6836 117.922 25.3133 117.434 25.8436C116.945 26.3739 116.334 26.7827 115.623 27.081C114.912 27.3792 114.101 27.5339 113.19 27.5339ZM113.19 25.5564C113.745 25.5564 114.234 25.4349 114.645 25.2029C115.056 24.9709 115.389 24.6615 115.656 24.2859C115.923 23.9103 116.112 23.4794 116.245 23.0044C116.367 22.5293 116.434 22.0432 116.434 21.5461C116.434 21.06 116.367 20.5849 116.245 20.0989C116.123 19.6128 115.923 19.1929 115.656 18.8173C115.389 18.4417 115.056 18.1434 114.645 17.9114C114.234 17.6794 113.745 17.5579 113.19 17.5579C112.634 17.5579 112.145 17.6794 111.734 17.9114C111.323 18.1434 110.99 18.4528 110.723 18.8173C110.456 19.1929 110.268 19.6128 110.134 20.0989C110.012 20.5849 109.945 21.06 109.945 21.5461C109.945 22.0432 110.012 22.5293 110.134 23.0044C110.257 23.4794 110.456 23.9103 110.723 24.2859C110.99 24.6615 111.323 24.9709 111.734 25.2029C112.145 25.4459 112.634 25.5564 113.19 25.5564ZM119.678 15.8897H121.578V12.487H124.089V15.8897H126.355V17.7568H124.089V23.8109C124.089 24.076 124.1 24.297 124.122 24.4958C124.144 24.6836 124.2 24.8493 124.277 24.9819C124.355 25.1145 124.477 25.2139 124.644 25.2802C124.811 25.3465 125.022 25.3796 125.311 25.3796C125.488 25.3796 125.666 25.3796 125.844 25.3686C126.022 25.3575 126.2 25.3354 126.377 25.2912V27.2246C126.1 27.2577 125.822 27.2798 125.566 27.313C125.3 27.3461 125.033 27.3572 124.755 27.3572C124.089 27.3572 123.555 27.2909 123.155 27.1693C122.755 27.0478 122.433 26.86 122.211 26.617C121.978 26.3739 121.833 26.0756 121.744 25.7111C121.667 25.3465 121.611 24.9267 121.6 24.4627V17.7788H119.7V15.8897H119.678V15.8897Z" fill="#626262"/>
<path d="M30.6417 11.5701H19.1316L15.5764 0.677124L12.0101 11.5701L0.5 11.5591L9.82138 18.2981L6.25503 29.18L15.5764 22.452L24.8867 29.18L21.3314 18.2981L30.6417 11.5701V11.5701Z" fill="#00B67A"/>
<path d="M22.1311 20.7617L21.3312 18.2981L15.5762 22.452L22.1311 20.7617Z" fill="#626262"/>
</g>
<defs>
<clipPath id="clip0_572_306">
<rect width="126" height="31" fill="white" transform="translate(0.5 0.5)"/>
</clipPath>
</defs>
</svg>
