<svg width="76" height="17" viewBox="0 0 76 17" fill="none" xmlns="http://www.w3.org/2000/svg">
<path d="M14.1887 6.01714L10.2215 5.44058L8.4481 1.84527C8.39966 1.74683 8.31997 1.66714 8.22154 1.61871C7.97466 1.49683 7.67466 1.59839 7.55122 1.84527L5.77779 5.44058L1.8106 6.01714C1.70123 6.03277 1.60123 6.08433 1.52466 6.16246C1.4321 6.25759 1.3811 6.38558 1.38286 6.5183C1.38461 6.65102 1.43899 6.77762 1.53404 6.87027L4.40435 9.66871L3.72623 13.6203C3.71032 13.7122 3.72049 13.8067 3.75559 13.8932C3.79068 13.9796 3.84929 14.0545 3.92477 14.1093C4.00025 14.1641 4.08958 14.1967 4.18263 14.2033C4.27568 14.21 4.36873 14.1904 4.45122 14.1468L7.99966 12.2812L11.5481 14.1468C11.645 14.1984 11.7575 14.2156 11.8653 14.1968C12.1372 14.15 12.32 13.8921 12.2731 13.6203L11.595 9.66871L14.4653 6.87027C14.5434 6.79371 14.595 6.69371 14.6106 6.58433C14.6528 6.31089 14.4622 6.05777 14.1887 6.01714Z" fill="#EA580C"/>
<path d="M34.1887 6.01714L30.2215 5.44058L28.4481 1.84527C28.3997 1.74683 28.32 1.66714 28.2215 1.61871C27.9747 1.49683 27.6747 1.59839 27.5512 1.84527L25.7778 5.44058L21.8106 6.01714C21.7012 6.03277 21.6012 6.08433 21.5247 6.16246C21.4321 6.25759 21.3811 6.38558 21.3829 6.5183C21.3846 6.65102 21.439 6.77762 21.534 6.87027L24.4043 9.66871L23.7262 13.6203C23.7103 13.7122 23.7205 13.8067 23.7556 13.8932C23.7907 13.9796 23.8493 14.0545 23.9248 14.1093C24.0002 14.1641 24.0896 14.1967 24.1826 14.2033C24.2757 14.21 24.3687 14.1904 24.4512 14.1468L27.9997 12.2812L31.5481 14.1468C31.645 14.1984 31.7575 14.2156 31.8653 14.1968C32.1372 14.15 32.32 13.8921 32.2731 13.6203L31.595 9.66871L34.4653 6.87027C34.5434 6.79371 34.595 6.69371 34.6106 6.58433C34.6528 6.31089 34.4622 6.05777 34.1887 6.01714Z" fill="#EA580C"/>
<path d="M54.1887 6.01714L50.2215 5.44058L48.4481 1.84527C48.3997 1.74683 48.32 1.66714 48.2215 1.61871C47.9747 1.49683 47.6747 1.59839 47.5512 1.84527L45.7778 5.44058L41.8106 6.01714C41.7012 6.03277 41.6012 6.08433 41.5247 6.16246C41.4321 6.25759 41.3811 6.38558 41.3829 6.5183C41.3846 6.65102 41.439 6.77762 41.534 6.87027L44.4043 9.66871L43.7262 13.6203C43.7103 13.7122 43.7205 13.8067 43.7556 13.8932C43.7907 13.9796 43.8493 14.0545 43.9248 14.1093C44.0002 14.1641 44.0896 14.1967 44.1826 14.2033C44.2757 14.21 44.3687 14.1904 44.4512 14.1468L47.9997 12.2812L51.5481 14.1468C51.645 14.1984 51.7575 14.2156 51.8653 14.1968C52.1372 14.15 52.32 13.8921 52.2731 13.6203L51.595 9.66871L54.4653 6.87027C54.5434 6.79371 54.595 6.69371 54.6106 6.58433C54.6528 6.31089 54.4622 6.05777 54.1887 6.01714Z" fill="#EA580C"/>
<path d="M74.1887 6.01714L70.2215 5.44058L68.4481 1.84527C68.3997 1.74683 68.32 1.66714 68.2215 1.61871C67.9747 1.49683 67.6747 1.59839 67.5512 1.84527L65.7778 5.44058L61.8106 6.01714C61.7012 6.03277 61.6012 6.08433 61.5247 6.16246C61.4321 6.25759 61.3811 6.38558 61.3829 6.5183C61.3846 6.65102 61.439 6.77762 61.534 6.87027L64.4043 9.66871L63.7262 13.6203C63.7103 13.7122 63.7205 13.8067 63.7556 13.8932C63.7907 13.9796 63.8493 14.0545 63.9248 14.1093C64.0002 14.1641 64.0896 14.1967 64.1826 14.2033C64.2757 14.21 64.3687 14.1904 64.4512 14.1468L67.9997 12.2812L71.5481 14.1468C71.645 14.1984 71.7575 14.2156 71.8653 14.1968C72.1372 14.15 72.32 13.8921 72.2731 13.6203L71.595 9.66871L74.4653 6.87027C74.5434 6.79371 74.595 6.69371 74.6106 6.58433C74.6528 6.31089 74.4622 6.05777 74.1887 6.01714Z" fill="#EA580C"/>
</svg>
