<svg width="96" height="16" viewBox="0 0 96 16" fill="none" xmlns="http://www.w3.org/2000/svg">
<path d="M14.1887 5.51714L10.2215 4.94058L8.4481 1.34527C8.39966 1.24683 8.31997 1.16714 8.22154 1.11871C7.97466 0.996832 7.67466 1.09839 7.55122 1.34527L5.77779 4.94058L1.8106 5.51714C1.70123 5.53277 1.60123 5.58433 1.52466 5.66246C1.4321 5.75759 1.3811 5.88558 1.38286 6.0183C1.38461 6.15102 1.43899 6.27762 1.53404 6.37027L4.40435 9.16871L3.72623 13.1203C3.71032 13.2122 3.72049 13.3067 3.75559 13.3932C3.79068 13.4796 3.84929 13.5545 3.92477 13.6093C4.00025 13.6641 4.08958 13.6967 4.18263 13.7033C4.27568 13.71 4.36873 13.6904 4.45122 13.6468L7.99966 11.7812L11.5481 13.6468C11.645 13.6984 11.7575 13.7156 11.8653 13.6968C12.1372 13.65 12.32 13.3921 12.2731 13.1203L11.595 9.16871L14.4653 6.37027C14.5434 6.29371 14.595 6.19371 14.6106 6.08433C14.6528 5.81089 14.4622 5.55777 14.1887 5.51714Z" fill="#EA580C"/>
<path d="M34.1887 5.51714L30.2215 4.94058L28.4481 1.34527C28.3997 1.24683 28.32 1.16714 28.2215 1.11871C27.9747 0.996832 27.6747 1.09839 27.5512 1.34527L25.7778 4.94058L21.8106 5.51714C21.7012 5.53277 21.6012 5.58433 21.5247 5.66246C21.4321 5.75759 21.3811 5.88558 21.3829 6.0183C21.3846 6.15102 21.439 6.27762 21.534 6.37027L24.4043 9.16871L23.7262 13.1203C23.7103 13.2122 23.7205 13.3067 23.7556 13.3932C23.7907 13.4796 23.8493 13.5545 23.9248 13.6093C24.0002 13.6641 24.0896 13.6967 24.1826 13.7033C24.2757 13.71 24.3687 13.6904 24.4512 13.6468L27.9997 11.7812L31.5481 13.6468C31.645 13.6984 31.7575 13.7156 31.8653 13.6968C32.1372 13.65 32.32 13.3921 32.2731 13.1203L31.595 9.16871L34.4653 6.37027C34.5434 6.29371 34.595 6.19371 34.6106 6.08433C34.6528 5.81089 34.4622 5.55777 34.1887 5.51714Z" fill="#EA580C"/>
<path d="M54.1887 5.51714L50.2215 4.94058L48.4481 1.34527C48.3997 1.24683 48.32 1.16714 48.2215 1.11871C47.9747 0.996832 47.6747 1.09839 47.5512 1.34527L45.7778 4.94058L41.8106 5.51714C41.7012 5.53277 41.6012 5.58433 41.5247 5.66246C41.4321 5.75759 41.3811 5.88558 41.3829 6.0183C41.3846 6.15102 41.439 6.27762 41.534 6.37027L44.4043 9.16871L43.7262 13.1203C43.7103 13.2122 43.7205 13.3067 43.7556 13.3932C43.7907 13.4796 43.8493 13.5545 43.9248 13.6093C44.0002 13.6641 44.0896 13.6967 44.1826 13.7033C44.2757 13.71 44.3687 13.6904 44.4512 13.6468L47.9997 11.7812L51.5481 13.6468C51.645 13.6984 51.7575 13.7156 51.8653 13.6968C52.1372 13.65 52.32 13.3921 52.2731 13.1203L51.595 9.16871L54.4653 6.37027C54.5434 6.29371 54.595 6.19371 54.6106 6.08433C54.6528 5.81089 54.4622 5.55777 54.1887 5.51714Z" fill="#EA580C"/>
<path d="M74.1887 5.51714L70.2215 4.94058L68.4481 1.34527C68.3997 1.24683 68.32 1.16714 68.2215 1.11871C67.9747 0.996832 67.6747 1.09839 67.5512 1.34527L65.7778 4.94058L61.8106 5.51714C61.7012 5.53277 61.6012 5.58433 61.5247 5.66246C61.4321 5.75759 61.3811 5.88558 61.3829 6.0183C61.3846 6.15102 61.439 6.27762 61.534 6.37027L64.4043 9.16871L63.7262 13.1203C63.7103 13.2122 63.7205 13.3067 63.7556 13.3932C63.7907 13.4796 63.8493 13.5545 63.9248 13.6093C64.0002 13.6641 64.0896 13.6967 64.1826 13.7033C64.2757 13.71 64.3687 13.6904 64.4512 13.6468L67.9997 11.7812L71.5481 13.6468C71.645 13.6984 71.7575 13.7156 71.8653 13.6968C72.1372 13.65 72.32 13.3921 72.2731 13.1203L71.595 9.16871L74.4653 6.37027C74.5434 6.29371 74.595 6.19371 74.6106 6.08433C74.6528 5.81089 74.4622 5.55777 74.1887 5.51714Z" fill="#EA580C"/>
<path d="M94.1887 5.51714L90.2215 4.94058L88.4481 1.34527C88.3997 1.24683 88.32 1.16714 88.2215 1.11871C87.9747 0.996832 87.6747 1.09839 87.5512 1.34527L85.7778 4.94058L81.8106 5.51714C81.7012 5.53277 81.6012 5.58433 81.5247 5.66246C81.4321 5.75759 81.3811 5.88558 81.3829 6.0183C81.3846 6.15102 81.439 6.27762 81.534 6.37027L84.4043 9.16871L83.7262 13.1203C83.7103 13.2122 83.7205 13.3067 83.7556 13.3932C83.7907 13.4796 83.8493 13.5545 83.9248 13.6093C84.0002 13.6641 84.0896 13.6967 84.1826 13.7033C84.2757 13.71 84.3687 13.6904 84.4512 13.6468L87.9997 11.7812L91.5481 13.6468C91.645 13.6984 91.7575 13.7156 91.8653 13.6968C92.1372 13.65 92.32 13.3921 92.2731 13.1203L91.595 9.16871L94.4653 6.37027C94.5434 6.29371 94.595 6.19371 94.6106 6.08433C94.6528 5.81089 94.4622 5.55777 94.1887 5.51714Z" fill="#EA580C"/>
</svg>
