<svg width="31" height="31" viewBox="0 0 31 31" fill="none" xmlns="http://www.w3.org/2000/svg">
<g clip-path="url(#clip0_641_70)">
<path fill-rule="evenodd" clip-rule="evenodd" d="M8.5 0.5H22.5V2.5H28.5V27.5C28.5 28.2956 28.1839 29.0587 27.6213 29.6213C27.0587 30.1839 26.2956 30.5 25.5 30.5H5.5C4.70435 30.5 3.94129 30.1839 3.37868 29.6213C2.81607 29.0587 2.5 28.2956 2.5 27.5V2.5H8.5V0.5ZM10.5 2.5H20.5V5.5C20.5 5.76522 20.3946 6.01957 20.2071 6.20711C20.0196 6.39464 19.7652 6.5 19.5 6.5H11.5C11.2348 6.5 10.9804 6.39464 10.7929 6.20711C10.6054 6.01957 10.5 5.76522 10.5 5.5V2.5ZM14.548 22.964L22.252 14.158L20.748 12.842L14.452 20.038L11.208 16.792L9.792 18.208L14.548 22.964Z" fill="#FB923C"/>
</g>
<defs>
<clipPath id="clip0_641_70">
<rect width="30" height="30" fill="white" transform="translate(0.5 0.5)"/>
</clipPath>
</defs>
</svg>
