<svg width="31" height="31" viewBox="0 0 31 31" fill="none" xmlns="http://www.w3.org/2000/svg">
<path d="M30.66 6.89248C30.5288 6.36338 29.8667 6.18408 29.4811 6.56963L25.1241 10.9267L21.1468 10.264L20.4841 6.28662L24.8411 1.9296C25.229 1.54171 25.0421 0.880772 24.5095 0.74835C21.7333 0.0604611 18.6765 0.80167 16.5067 2.97081C14.1841 5.29346 13.5448 8.66025 14.5116 11.5958L2.00835 24.0991C0.544093 25.5633 0.544093 27.9376 2.00835 29.4018C3.4726 30.8661 5.84681 30.8661 7.31107 29.4018L19.8038 16.9091C22.7405 17.8882 26.1009 17.2419 28.4387 14.904C30.6108 12.7319 31.3508 9.6704 30.66 6.89248ZM4.66029 28.1561C3.88393 28.1561 3.25405 27.5262 3.25405 26.7499C3.25405 25.9729 3.88393 25.3436 4.66029 25.3436C5.43666 25.3436 6.06654 25.9729 6.06654 26.7499C6.06654 27.5262 5.43666 28.1561 4.66029 28.1561Z" fill="#FB923C"/>
</svg>
