<svg width="20" height="29" viewBox="0 0 20 29" fill="none" xmlns="http://www.w3.org/2000/svg">
<path d="M15.8926 0.123196C16.0699 0.226035 16.2072 0.385991 16.282 0.576933C16.3567 0.767875 16.3645 0.978517 16.304 1.17445L13.0397 11.7812H19.0626C19.2396 11.7811 19.4128 11.8329 19.5607 11.9301C19.7086 12.0273 19.8248 12.1657 19.895 12.3282C19.9651 12.4907 19.9862 12.6702 19.9555 12.8445C19.9248 13.0188 19.8438 13.1803 19.7224 13.3091L5.22237 28.7154C5.08207 28.8646 4.89537 28.9618 4.69271 28.9913C4.49004 29.0208 4.28336 28.9808 4.10636 28.8778C3.92935 28.7748 3.79245 28.6149 3.71798 28.4241C3.6435 28.2333 3.63584 28.0229 3.69624 27.8273L6.96056 17.2187H0.937617C0.760618 17.2188 0.587472 17.167 0.439553 17.0698C0.291635 16.9726 0.17542 16.8342 0.105254 16.6717C0.0350887 16.5092 0.0140446 16.3297 0.0447195 16.1554C0.0753945 15.9811 0.156445 15.8195 0.277867 15.6908L14.7779 0.284509C14.918 0.13552 15.1044 0.0383143 15.3068 0.00869791C15.5092 -0.0209184 15.7156 0.0187959 15.8926 0.121384V0.123196Z" fill="#FB923C"/>
</svg>
