<svg width="24" height="24" viewBox="0 0 24 24" fill="none" xmlns="http://www.w3.org/2000/svg">
<path d="M18.3983 0.064655C18.553 0.128617 18.6853 0.23705 18.7784 0.376229C18.8715 0.515409 18.9212 0.679076 18.9212 0.846516V5.07737H23.1523C23.3199 5.07707 23.4838 5.12653 23.6232 5.21949C23.7626 5.31245 23.8713 5.44471 23.9355 5.59952C23.9997 5.75432 24.0164 5.92469 23.9837 6.08903C23.9509 6.25338 23.87 6.40428 23.7514 6.52263L20.3665 9.90731C20.2878 9.98584 20.1944 10.0481 20.0916 10.0905C19.9888 10.1329 19.8786 10.1546 19.7674 10.1544H15.0405L13.7881 11.4084C13.855 11.6593 13.8634 11.9222 13.8125 12.1768C13.7617 12.4315 13.6529 12.671 13.4948 12.8769C13.3366 13.0829 13.1332 13.2497 12.9003 13.3645C12.6674 13.4793 12.4112 13.539 12.1515 13.5391C11.7027 13.5391 11.2722 13.3608 10.9548 13.0434C10.6374 12.726 10.4591 12.2956 10.4591 11.8467L10.4608 11.7689C10.4724 11.5161 10.5406 11.2691 10.6602 11.0461C10.7799 10.8232 10.9481 10.6299 11.1524 10.4805C11.3567 10.3311 11.5918 10.2294 11.8406 10.1829C12.0894 10.1365 12.3454 10.1464 12.5899 10.2119L13.8439 8.95791V4.2312C13.8437 4.12 13.8655 4.00986 13.9079 3.90706C13.9503 3.80427 14.0125 3.71084 14.091 3.63211L17.4759 0.247428C17.5943 0.129163 17.7452 0.0486744 17.9093 0.0161409C18.0735 -0.0163926 18.2437 0.000490386 18.3983 0.064655ZM19.4171 8.46205L21.1095 6.76971H18.075C17.8506 6.76971 17.6353 6.68056 17.4766 6.52187C17.3179 6.36318 17.2288 6.14796 17.2288 5.92354V2.88917L15.5364 4.58151V8.46205H19.4171ZM22.213 10.4522C22.505 12.5594 22.1278 14.7051 21.1345 16.5864C20.1413 18.4677 18.5823 19.9895 16.6776 20.9371C14.7728 21.8846 12.6186 22.2101 10.5189 21.8674C8.41924 21.5247 6.48023 20.5313 4.97561 19.0273C3.47098 17.5234 2.47675 15.5849 2.13325 13.4854C1.78975 11.386 2.11434 9.23172 3.0612 7.32669C4.00806 5.42167 5.52936 3.86213 7.41034 2.86823C9.29132 1.87434 11.437 1.49629 13.5444 1.78746L12.8962 2.43562C12.6279 2.7039 12.4232 3.0289 12.2971 3.38672L12.1515 3.38503C10.4717 3.38528 8.83002 3.88544 7.43545 4.82182C6.04088 5.7582 4.95657 7.08842 4.32059 8.64309C3.68462 10.1978 3.52575 11.9065 3.86424 13.5518C4.20272 15.197 5.02323 16.7043 6.22129 17.8817C7.41934 19.0591 8.94072 19.8533 10.5917 20.1632C12.2426 20.4731 13.9485 20.2846 15.492 19.6218C17.0354 18.959 18.3467 17.8518 19.2588 16.4413C20.1709 15.0307 20.6425 13.3807 20.6136 11.7012C20.9701 11.5751 21.2939 11.371 21.5614 11.1038L22.2113 10.4522H22.213ZM12.1515 5.92354C10.98 5.92354 9.83473 6.27093 8.86061 6.92178C7.8865 7.57263 7.12728 8.4977 6.67894 9.58002C6.23061 10.6623 6.1133 11.8533 6.34186 13.0023C6.57042 14.1513 7.13458 15.2067 7.96299 16.0351C8.79141 16.8634 9.84687 17.4276 10.9959 17.6561C12.145 17.8847 13.336 17.7674 14.4183 17.319C15.5007 16.8707 16.4258 16.1115 17.0767 15.1375C17.7276 14.1634 18.075 13.0182 18.075 11.8467H16.3826C16.3826 12.6835 16.1344 13.5015 15.6695 14.1973C15.2046 14.893 14.5438 15.4353 13.7707 15.7555C12.9976 16.0758 12.1468 16.1595 11.3261 15.9963C10.5053 15.833 9.75144 15.4301 9.15971 14.8384C8.56799 14.2467 8.16502 13.4928 8.00177 12.6721C7.83851 11.8514 7.9223 11.0007 8.24254 10.2277C8.56278 9.45457 9.10508 8.7938 9.80087 8.32891C10.4967 7.86402 11.3147 7.61588 12.1515 7.61588V5.92354Z" fill="#FB923C"/>
</svg>
