<svg width="74" height="60" viewBox="0 0 74 60" fill="none" xmlns="http://www.w3.org/2000/svg">
<rect x="27.5332" y="21.5989" width="4.93407" height="14.8242" fill="#323232" stroke="#333333"/>
<path d="M22.8517 37.0824L36.8215 20.9396H57.476L72.6876 37.0824H22.8517Z" fill="#676767" stroke="#818181"/>
<rect x="26.874" y="37.4231" width="41.1978" height="21.4176" fill="#DBDBDB" stroke="#818181"/>
<rect x="50.6104" y="42.6978" width="9.54945" height="16.1429" fill="white" stroke="#818181"/>
<rect x="31.4893" y="42.6978" width="12.1868" height="10.2088" fill="white" stroke="#818181"/>
<path d="M30.97 8.07456C30.8923 8.04108 30.8305 7.9787 30.7972 7.9004C29.8202 5.55899 28.1796 3.5604 26.081 2.15502C23.9825 0.74965 21.5192 0 19 0C16.4808 0 14.0175 0.74965 11.919 2.15502C9.8204 3.5604 8.17981 5.55899 7.20275 7.9004C7.16955 7.9787 7.10768 8.04108 7.03003 8.07456C4.94249 9.05626 3.1739 10.6148 1.92955 12.5693C0.685209 14.5239 0.016149 16.7942 4.22147e-05 19.1167C-0.0172305 25.6828 5.26821 31.169 11.78 31.3432C13.9403 31.4012 16.0762 30.8718 17.9636 29.8105L18.2385 58.955C18.2385 59.2322 18.3477 59.498 18.542 59.6939C18.7364 59.8899 19 60 19.2749 60C19.5497 60 19.8133 59.8899 20.0077 59.6939C20.202 59.498 20.3112 59.2322 20.3112 58.955L20.0364 29.8105C21.8315 30.82 23.8537 31.3477 25.9091 31.3432H26.22C32.7318 31.169 38.0172 25.6828 38 19.1167C37.9839 16.7942 37.3148 14.5239 36.0704 12.5693C34.8261 10.6148 33.0575 9.05626 30.97 8.07456ZM26.1682 29.2532C24.099 29.3087 22.0642 28.712 20.3473 27.5464L20.0364 27.3722V19.796L27.7573 15.9121C28.0046 15.7873 28.1927 15.5686 28.2802 15.3041C28.3677 15.0395 28.3473 14.7507 28.2236 14.5013C28.0999 14.2519 27.883 14.0622 27.6207 13.974C27.3583 13.8858 27.0719 13.9063 26.8245 14.0311L20.0364 17.4621V12.1849C20.0364 11.9077 19.9272 11.6419 19.7328 11.446C19.5385 11.25 19.2749 11.1399 19 11.1399C18.7251 11.1399 18.4615 11.25 18.2672 11.446C18.0728 11.6419 17.9636 11.9077 17.9636 12.1849V21.6421L11.1755 18.2111C11.053 18.1493 10.9196 18.1125 10.783 18.1027C10.6464 18.0929 10.5093 18.1103 10.3793 18.154C10.2494 18.1977 10.1293 18.2667 10.0259 18.3572C9.9224 18.4477 9.83763 18.5578 9.77638 18.6813C9.71514 18.8048 9.67862 18.9393 9.66892 19.077C9.65921 19.2147 9.6765 19.3531 9.71981 19.4841C9.76311 19.6151 9.83158 19.7362 9.92131 19.8405C10.011 19.9448 10.1203 20.0303 10.2427 20.092L17.9636 23.976V27.3722L17.6527 27.5464C15.9358 28.712 13.901 29.3087 11.8318 29.2532C6.44275 29.1139 2.05549 24.5681 2.07276 19.1167C2.08179 17.1903 2.63596 15.3066 3.67015 13.6868C4.70434 12.0671 6.17557 10.7787 7.91093 9.97298C8.4541 9.71183 8.88404 9.25973 9.12002 8.70156C9.94086 6.74344 11.3158 5.07265 13.073 3.89797C14.8302 2.72328 16.8917 2.0968 19 2.0968C21.1083 2.0968 23.1698 2.72328 24.927 3.89797C26.6842 5.07265 28.0591 6.74344 28.88 8.70156C29.116 9.25973 29.5459 9.71183 30.0891 9.97298C31.8244 10.7787 33.2957 12.0671 34.3298 13.6868C35.364 15.3066 35.9182 17.1903 35.9272 19.1167C35.9445 24.5681 31.5572 29.1139 26.1682 29.2532Z" fill="#858585"/>
<path d="M26.1682 29.2532C24.099 29.3087 22.0642 28.712 20.3473 27.5464L20.0364 27.3722V19.796L27.7573 15.9121C28.0046 15.7873 28.1927 15.5686 28.2802 15.3041C28.3677 15.0395 28.3473 14.7507 28.2236 14.5013C28.0999 14.2519 27.883 14.0622 27.6207 13.974C27.3583 13.8858 27.0719 13.9063 26.8245 14.0311L20.0364 17.4621V12.1849C20.0364 11.9077 19.9272 11.6419 19.7328 11.446C19.5385 11.25 19.2749 11.1399 19 11.1399C18.7251 11.1399 18.4615 11.25 18.2672 11.446C18.0728 11.6419 17.9636 11.9077 17.9636 12.1849V21.6421L11.1755 18.2111C11.053 18.1493 10.9196 18.1125 10.783 18.1027C10.6464 18.0929 10.5093 18.1103 10.3793 18.154C10.2494 18.1977 10.1293 18.2667 10.0259 18.3572C9.9224 18.4477 9.83763 18.5578 9.77638 18.6813C9.71514 18.8048 9.67862 18.9393 9.66892 19.077C9.65921 19.2147 9.6765 19.3531 9.71981 19.4841C9.76311 19.6151 9.83158 19.7362 9.92131 19.8405C10.011 19.9448 10.1203 20.0303 10.2427 20.092L17.9636 23.976V27.3722L17.6527 27.5464C15.9358 28.712 13.901 29.3087 11.8318 29.2532C6.44275 29.1139 2.05549 24.5681 2.07276 19.1167C2.08179 17.1903 2.63596 15.3066 3.67015 13.6868C4.70434 12.0671 6.17557 10.7787 7.91093 9.97298C8.4541 9.71183 8.88404 9.25973 9.12002 8.70156C9.94086 6.74344 11.3158 5.07265 13.073 3.89797C14.8302 2.72328 16.8917 2.0968 19 2.0968C21.1083 2.0968 23.1698 2.72328 24.927 3.89797C26.6842 5.07265 28.0591 6.74344 28.88 8.70156C29.116 9.25973 29.5459 9.71183 30.0891 9.97298C31.8244 10.7787 33.2957 12.0671 34.3298 13.6868C35.364 15.3066 35.9182 17.1903 35.9272 19.1167C35.9445 24.5681 31.5572 29.1139 26.1682 29.2532Z" fill="#EFEFEF"/>
</svg>
