<svg width="89" height="60" viewBox="0 0 89 60" fill="none" xmlns="http://www.w3.org/2000/svg">
<path d="M30.97 8.07456C30.8923 8.04108 30.8305 7.9787 30.7972 7.9004C29.8202 5.55899 28.1796 3.5604 26.081 2.15502C23.9825 0.74965 21.5192 0 19 0C16.4808 0 14.0175 0.74965 11.919 2.15502C9.8204 3.5604 8.17981 5.55899 7.20275 7.9004C7.16955 7.9787 7.10768 8.04108 7.03003 8.07456C4.94249 9.05626 3.1739 10.6148 1.92955 12.5693C0.685209 14.5239 0.016149 16.7942 4.22147e-05 19.1167C-0.0172305 25.6828 5.26821 31.169 11.78 31.3432C13.9403 31.4012 16.0762 30.8718 17.9636 29.8105L18.2385 58.955C18.2385 59.2322 18.3477 59.498 18.542 59.6939C18.7364 59.8899 19 60 19.2749 60C19.5497 60 19.8133 59.8899 20.0077 59.6939C20.202 59.498 20.3112 59.2322 20.3112 58.955L20.0364 29.8105C21.8315 30.82 23.8537 31.3477 25.9091 31.3432H26.22C32.7318 31.169 38.0172 25.6828 38 19.1167C37.9839 16.7942 37.3148 14.5239 36.0704 12.5693C34.8261 10.6148 33.0575 9.05626 30.97 8.07456ZM26.1682 29.2532C24.099 29.3087 22.0642 28.712 20.3473 27.5464L20.0364 27.3722V19.796L27.7573 15.9121C28.0046 15.7873 28.1927 15.5686 28.2802 15.3041C28.3677 15.0395 28.3473 14.7507 28.2236 14.5013C28.0999 14.2519 27.883 14.0622 27.6207 13.974C27.3583 13.8858 27.0719 13.9063 26.8245 14.0311L20.0364 17.4621V12.1849C20.0364 11.9077 19.9272 11.6419 19.7328 11.446C19.5385 11.25 19.2749 11.1399 19 11.1399C18.7251 11.1399 18.4615 11.25 18.2672 11.446C18.0728 11.6419 17.9636 11.9077 17.9636 12.1849V21.6421L11.1755 18.2111C11.053 18.1493 10.9196 18.1125 10.783 18.1027C10.6464 18.0929 10.5093 18.1103 10.3793 18.154C10.2494 18.1977 10.1293 18.2667 10.0259 18.3572C9.9224 18.4477 9.83763 18.5578 9.77638 18.6813C9.71514 18.8048 9.67862 18.9393 9.66892 19.077C9.65921 19.2147 9.6765 19.3531 9.71981 19.4841C9.76311 19.6151 9.83158 19.7362 9.92131 19.8405C10.011 19.9448 10.1203 20.0303 10.2427 20.092L17.9636 23.976V27.3722L17.6527 27.5464C15.9358 28.712 13.901 29.3087 11.8318 29.2532C6.44275 29.1139 2.05549 24.5681 2.07276 19.1167C2.08179 17.1903 2.63596 15.3066 3.67015 13.6868C4.70434 12.0671 6.17557 10.7787 7.91093 9.97298C8.4541 9.71183 8.88404 9.25973 9.12002 8.70156C9.94086 6.74344 11.3158 5.07265 13.073 3.89797C14.8302 2.72328 16.8917 2.0968 19 2.0968C21.1083 2.0968 23.1698 2.72328 24.927 3.89797C26.6842 5.07265 28.0591 6.74344 28.88 8.70156C29.116 9.25973 29.5459 9.71183 30.0891 9.97298C31.8244 10.7787 33.2957 12.0671 34.3298 13.6868C35.364 15.3066 35.9182 17.1903 35.9272 19.1167C35.9445 24.5681 31.5572 29.1139 26.1682 29.2532Z" fill="#9A8062"/>
<path d="M26.1682 29.2532C24.099 29.3087 22.0642 28.712 20.3473 27.5464L20.0364 27.3722V19.796L27.7573 15.9121C28.0046 15.7873 28.1927 15.5686 28.2802 15.3041C28.3677 15.0395 28.3473 14.7507 28.2236 14.5013C28.0999 14.2519 27.883 14.0622 27.6207 13.974C27.3583 13.8858 27.0719 13.9063 26.8245 14.0311L20.0364 17.4621V12.1849C20.0364 11.9077 19.9272 11.6419 19.7328 11.446C19.5385 11.25 19.2749 11.1399 19 11.1399C18.7251 11.1399 18.4615 11.25 18.2672 11.446C18.0728 11.6419 17.9636 11.9077 17.9636 12.1849V21.6421L11.1755 18.2111C11.053 18.1493 10.9196 18.1125 10.783 18.1027C10.6464 18.0929 10.5093 18.1103 10.3793 18.154C10.2494 18.1977 10.1293 18.2667 10.0259 18.3572C9.9224 18.4477 9.83763 18.5578 9.77638 18.6813C9.71514 18.8048 9.67862 18.9393 9.66892 19.077C9.65921 19.2147 9.6765 19.3531 9.71981 19.4841C9.76311 19.6151 9.83158 19.7362 9.92131 19.8405C10.011 19.9448 10.1203 20.0303 10.2427 20.092L17.9636 23.976V27.3722L17.6527 27.5464C15.9358 28.712 13.901 29.3087 11.8318 29.2532C6.44275 29.1139 2.05549 24.5681 2.07276 19.1167C2.08179 17.1903 2.63596 15.3066 3.67015 13.6868C4.70434 12.0671 6.17557 10.7787 7.91093 9.97298C8.4541 9.71183 8.88404 9.25973 9.12002 8.70156C9.94086 6.74344 11.3158 5.07265 13.073 3.89797C14.8302 2.72328 16.8917 2.0968 19 2.0968C21.1083 2.0968 23.1698 2.72328 24.927 3.89797C26.6842 5.07265 28.0591 6.74344 28.88 8.70156C29.116 9.25973 29.5459 9.71183 30.0891 9.97298C31.8244 10.7787 33.2957 12.0671 34.3298 13.6868C35.364 15.3066 35.9182 17.1903 35.9272 19.1167C35.9445 24.5681 31.5572 29.1139 26.1682 29.2532Z" fill="#676767"/>
<path d="M30.97 8.07456C30.8923 8.04108 30.8305 7.9787 30.7972 7.9004C29.8202 5.55899 28.1796 3.5604 26.081 2.15502C23.9825 0.74965 21.5192 0 19 0C16.4808 0 14.0175 0.74965 11.919 2.15502C9.8204 3.5604 8.17981 5.55899 7.20275 7.9004C7.16955 7.9787 7.10768 8.04108 7.03003 8.07456C4.94249 9.05626 3.1739 10.6148 1.92955 12.5693C0.685209 14.5239 0.016149 16.7942 4.22147e-05 19.1167C-0.0172305 25.6828 5.26821 31.169 11.78 31.3432C13.9403 31.4012 16.0762 30.8718 17.9636 29.8105L18.2385 58.955C18.2385 59.2322 18.3477 59.498 18.542 59.6939C18.7364 59.8899 19 60 19.2749 60C19.5497 60 19.8133 59.8899 20.0077 59.6939C20.202 59.498 20.3112 59.2322 20.3112 58.955L20.0364 29.8105C21.8315 30.82 23.8537 31.3477 25.9091 31.3432H26.22C32.7318 31.169 38.0172 25.6828 38 19.1167C37.9839 16.7942 37.3148 14.5239 36.0704 12.5693C34.8261 10.6148 33.0575 9.05626 30.97 8.07456ZM26.1682 29.2532C24.099 29.3087 22.0642 28.712 20.3473 27.5464L20.0364 27.3722V19.796L27.7573 15.9121C28.0046 15.7873 28.1927 15.5686 28.2802 15.3041C28.3677 15.0395 28.3473 14.7507 28.2236 14.5013C28.0999 14.2519 27.883 14.0622 27.6207 13.974C27.3583 13.8858 27.0719 13.9063 26.8245 14.0311L20.0364 17.4621V12.1849C20.0364 11.9077 19.9272 11.6419 19.7328 11.446C19.5385 11.25 19.2749 11.1399 19 11.1399C18.7251 11.1399 18.4615 11.25 18.2672 11.446C18.0728 11.6419 17.9636 11.9077 17.9636 12.1849V21.6421L11.1755 18.2111C11.053 18.1493 10.9196 18.1125 10.783 18.1027C10.6464 18.0929 10.5093 18.1103 10.3793 18.154C10.2494 18.1977 10.1293 18.2667 10.0259 18.3572C9.9224 18.4477 9.83763 18.5578 9.77638 18.6813C9.71514 18.8048 9.67862 18.9393 9.66892 19.077C9.65921 19.2147 9.6765 19.3531 9.71981 19.4841C9.76311 19.6151 9.83158 19.7362 9.92131 19.8405C10.011 19.9448 10.1203 20.0303 10.2427 20.092L17.9636 23.976V27.3722L17.6527 27.5464C15.9358 28.712 13.901 29.3087 11.8318 29.2532C6.44275 29.1139 2.05549 24.5681 2.07276 19.1167C2.08179 17.1903 2.63596 15.3066 3.67015 13.6868C4.70434 12.0671 6.17557 10.7787 7.91093 9.97298C8.4541 9.71183 8.88404 9.25973 9.12002 8.70156C9.94086 6.74344 11.3158 5.07265 13.073 3.89797C14.8302 2.72328 16.8917 2.0968 19 2.0968C21.1083 2.0968 23.1698 2.72328 24.927 3.89797C26.6842 5.07265 28.0591 6.74344 28.88 8.70156C29.116 9.25973 29.5459 9.71183 30.0891 9.97298C31.8244 10.7787 33.2957 12.0671 34.3298 13.6868C35.364 15.3066 35.9182 17.1903 35.9272 19.1167C35.9445 24.5681 31.5572 29.1139 26.1682 29.2532Z" fill="#858585"/>
<path d="M26.1682 29.2532C24.099 29.3087 22.0642 28.712 20.3473 27.5464L20.0364 27.3722V19.796L27.7573 15.9121C28.0046 15.7873 28.1927 15.5686 28.2802 15.3041C28.3677 15.0395 28.3473 14.7507 28.2236 14.5013C28.0999 14.2519 27.883 14.0622 27.6207 13.974C27.3583 13.8858 27.0719 13.9063 26.8245 14.0311L20.0364 17.4621V12.1849C20.0364 11.9077 19.9272 11.6419 19.7328 11.446C19.5385 11.25 19.2749 11.1399 19 11.1399C18.7251 11.1399 18.4615 11.25 18.2672 11.446C18.0728 11.6419 17.9636 11.9077 17.9636 12.1849V21.6421L11.1755 18.2111C11.053 18.1493 10.9196 18.1125 10.783 18.1027C10.6464 18.0929 10.5093 18.1103 10.3793 18.154C10.2494 18.1977 10.1293 18.2667 10.0259 18.3572C9.9224 18.4477 9.83763 18.5578 9.77638 18.6813C9.71514 18.8048 9.67862 18.9393 9.66892 19.077C9.65921 19.2147 9.6765 19.3531 9.71981 19.4841C9.76311 19.6151 9.83158 19.7362 9.92131 19.8405C10.011 19.9448 10.1203 20.0303 10.2427 20.092L17.9636 23.976V27.3722L17.6527 27.5464C15.9358 28.712 13.901 29.3087 11.8318 29.2532C6.44275 29.1139 2.05549 24.5681 2.07276 19.1167C2.08179 17.1903 2.63596 15.3066 3.67015 13.6868C4.70434 12.0671 6.17557 10.7787 7.91093 9.97298C8.4541 9.71183 8.88404 9.25973 9.12002 8.70156C9.94086 6.74344 11.3158 5.07265 13.073 3.89797C14.8302 2.72328 16.8917 2.0968 19 2.0968C21.1083 2.0968 23.1698 2.72328 24.927 3.89797C26.6842 5.07265 28.0591 6.74344 28.88 8.70156C29.116 9.25973 29.5459 9.71183 30.0891 9.97298C31.8244 10.7787 33.2957 12.0671 34.3298 13.6868C35.364 15.3066 35.9182 17.1903 35.9272 19.1167C35.9445 24.5681 31.5572 29.1139 26.1682 29.2532Z" fill="#EFEFEF"/>
<rect x="27.5322" y="21.5989" width="4.93407" height="14.8242" fill="#323232" stroke="#333333"/>
<path d="M22.8517 37.0824L36.8215 20.9396H57.476L72.6876 37.0824H22.8517Z" fill="#676767" stroke="#818181"/>
<rect x="26.873" y="37.4231" width="41.1978" height="21.4176" fill="#DBDBDB" stroke="#818181"/>
<rect x="50.6094" y="42.6979" width="9.54945" height="16.1429" fill="white" stroke="#818181"/>
<rect x="31.4883" y="42.6979" width="12.1868" height="10.2088" fill="white" stroke="#818181"/>
<path d="M83.08 15.7288C83.0146 15.7009 82.9625 15.6489 82.9345 15.5837C82.1117 13.6325 80.7302 11.967 78.963 10.7959C77.1958 9.62471 75.1215 9 73 9C70.8785 9 68.8042 9.62471 67.037 10.7959C65.2698 11.967 63.8883 13.6325 63.0655 15.5837C63.0375 15.6489 62.9854 15.7009 62.92 15.7288C61.1621 16.5469 59.6728 17.8457 58.6249 19.4745C57.577 21.1032 57.0136 22.9951 57 24.9306C56.9855 30.4023 61.4364 34.9742 66.92 35.1193C68.7392 35.1677 70.5379 34.7265 72.1273 33.8421L72.3587 58.1292C72.3587 58.3601 72.4507 58.5816 72.6144 58.7449C72.778 58.9083 73 59 73.2315 59C73.4629 59 73.6849 58.9083 73.8486 58.7449C74.0122 58.5816 74.1042 58.3601 74.1042 58.1292L73.8727 33.8421C75.3844 34.6833 77.0873 35.1231 78.8182 35.1193H79.08C84.5636 34.9742 89.0145 30.4023 89 24.9306C88.9864 22.9951 88.423 21.1032 87.3751 19.4745C86.3272 17.8457 84.8379 16.5469 83.08 15.7288ZM79.0364 33.3777C77.2939 33.4239 75.5804 32.9267 74.1345 31.9553L73.8727 31.8102V25.4966L80.3745 22.26C80.5828 22.1561 80.7413 21.9739 80.8149 21.7534C80.8886 21.5329 80.8714 21.2923 80.7673 21.0844C80.6631 20.8766 80.4805 20.7185 80.2595 20.645C80.0386 20.5715 79.7974 20.5886 79.5891 20.6925L73.8727 23.5518V19.1541C73.8727 18.9231 73.7808 18.7016 73.6171 18.5383C73.4534 18.375 73.2315 18.2832 73 18.2832C72.7685 18.2832 72.5466 18.375 72.3829 18.5383C72.2192 18.7016 72.1273 18.9231 72.1273 19.1541V27.0351L66.4109 24.1759C66.3078 24.1244 66.1955 24.0937 66.0805 24.0856C65.9654 24.0774 65.8499 24.0919 65.7405 24.1283C65.6311 24.1647 65.5299 24.2223 65.4428 24.2977C65.3557 24.373 65.2843 24.4648 65.2327 24.5677C65.1812 24.6707 65.1504 24.7827 65.1422 24.8975C65.1341 25.0123 65.1486 25.1276 65.1851 25.2367C65.2216 25.3459 65.2792 25.4468 65.3548 25.5338C65.4303 25.6207 65.5223 25.6919 65.6255 25.7434L72.1273 28.98V31.8102L71.8655 31.9553C70.4196 32.9267 68.7061 33.4239 66.9637 33.3777C62.4255 33.2616 58.7309 29.4734 58.7455 24.9306C58.7531 23.3253 59.2198 21.7555 60.0907 20.4057C60.9616 19.0559 62.2005 17.9822 63.6618 17.3108C64.1192 17.0932 64.4813 16.7164 64.68 16.2513C65.3713 14.6195 66.5291 13.2272 68.0088 12.2483C69.4886 11.2694 71.2246 10.7473 73 10.7473C74.7754 10.7473 76.5114 11.2694 77.9912 12.2483C79.4709 13.2272 80.6288 14.6195 81.32 16.2513C81.5187 16.7164 81.8808 17.0932 82.3382 17.3108C83.7995 17.9822 85.0385 19.0559 85.9093 20.4057C86.7802 21.7555 87.2469 23.3253 87.2545 24.9306C87.2691 29.4734 83.5745 33.2616 79.0364 33.3777Z" fill="#858585"/>
<path d="M79.0364 33.3777C77.2939 33.4239 75.5804 32.9267 74.1345 31.9553L73.8727 31.8102V25.4966L80.3745 22.26C80.5828 22.1561 80.7413 21.9739 80.8149 21.7534C80.8886 21.5329 80.8714 21.2923 80.7673 21.0844C80.6631 20.8766 80.4805 20.7185 80.2595 20.645C80.0386 20.5715 79.7974 20.5886 79.5891 20.6925L73.8727 23.5518V19.1541C73.8727 18.9231 73.7808 18.7016 73.6171 18.5383C73.4534 18.375 73.2315 18.2832 73 18.2832C72.7685 18.2832 72.5466 18.375 72.3829 18.5383C72.2192 18.7016 72.1273 18.9231 72.1273 19.1541V27.0351L66.4109 24.1759C66.3078 24.1244 66.1955 24.0937 66.0805 24.0856C65.9654 24.0774 65.8499 24.0919 65.7405 24.1283C65.6311 24.1647 65.5299 24.2223 65.4428 24.2977C65.3557 24.373 65.2843 24.4648 65.2327 24.5677C65.1812 24.6707 65.1504 24.7827 65.1422 24.8975C65.1341 25.0123 65.1486 25.1276 65.1851 25.2367C65.2216 25.3459 65.2792 25.4468 65.3548 25.5338C65.4303 25.6207 65.5223 25.6919 65.6255 25.7434L72.1273 28.98V31.8102L71.8655 31.9553C70.4196 32.9267 68.7061 33.4239 66.9637 33.3777C62.4255 33.2616 58.7309 29.4734 58.7455 24.9306C58.7531 23.3253 59.2198 21.7555 60.0907 20.4057C60.9616 19.0559 62.2005 17.9822 63.6618 17.3108C64.1192 17.0932 64.4813 16.7164 64.68 16.2513C65.3713 14.6195 66.5291 13.2272 68.0088 12.2483C69.4886 11.2694 71.2246 10.7473 73 10.7473C74.7754 10.7473 76.5114 11.2694 77.9912 12.2483C79.4709 13.2272 80.6288 14.6195 81.32 16.2513C81.5187 16.7164 81.8808 17.0932 82.3382 17.3108C83.7995 17.9822 85.0385 19.0559 85.9093 20.4057C86.7802 21.7555 87.2469 23.3253 87.2545 24.9306C87.2691 29.4734 83.5745 33.2616 79.0364 33.3777Z" fill="#EFEFEF"/>
</svg>
